<svg width="512" height="512" viewBox="0 0 512 512" fill="none" xmlns="http://www.w3.org/2000/svg">
  <rect width="512" height="512" rx="256" fill="#F60808"/>
  <ellipse cx="256" cy="247" rx="216" ry="120" fill="#FFF21D" stroke="#111111" stroke-width="10"/>
  <path d="M104 278c-20 0-36-14-36-35 0-25 21-47 52-47 16 0 31 5 42 13" stroke="#111111" stroke-width="23" stroke-linecap="round"/>
  <path d="M104 278c-20 0-36-14-36-35 0-25 21-47 52-47 16 0 31 5 42 13" stroke="#FFFFFF" stroke-width="16" stroke-linecap="round"/>
  <path d="M104 278c-20 0-36-14-36-35 0-25 21-47 52-47 16 0 31 5 42 13" stroke="#F60808" stroke-width="9" stroke-linecap="round"/>
  <g filter="url(#softShadow)">
    <text x="118" y="201" font-family="Arial Black, Arial, sans-serif" font-size="83" font-style="italic" font-weight="900" fill="#F60808" stroke="#111111" stroke-width="13" paint-order="stroke">Pizza</text>
    <text x="118" y="201" font-family="Arial Black, Arial, sans-serif" font-size="83" font-style="italic" font-weight="900" fill="#F60808" stroke="#FFFFFF" stroke-width="7" paint-order="stroke">Pizza</text>
    <text x="100" y="303" font-family="Arial Black, Arial, sans-serif" font-size="84" font-style="italic" font-weight="900" fill="#F60808" stroke="#111111" stroke-width="13" paint-order="stroke">e Cia</text>
    <text x="100" y="303" font-family="Arial Black, Arial, sans-serif" font-size="84" font-style="italic" font-weight="900" fill="#F60808" stroke="#FFFFFF" stroke-width="7" paint-order="stroke">e Cia</text>
  </g>
  <g transform="translate(352 168)">
    <path d="M56 78c24 0 43 19 43 43s-19 43-43 43-43-19-43-43 19-43 43-43Z" fill="#FFD21E" stroke="#111111" stroke-width="6"/>
    <path d="M35 108l43 33 16-55-59 22Z" fill="#FFB703" stroke="#111111" stroke-width="5"/>
    <path d="M35 108c17 4 34 0 50-12" stroke="#FFF0B5" stroke-width="8" stroke-linecap="round"/>
    <path d="M11 48c27-15 55-17 87-5-7-23-33-33-58-27C21 20 10 32 11 48Z" fill="#FFFFFF" stroke="#111111" stroke-width="5"/>
    <path d="M43 15c3-15 22-19 36-9 13 10 13 30 1 42" fill="#FFFFFF"/>
    <path d="M43 15c3-15 22-19 36-9 13 10 13 30 1 42" stroke="#111111" stroke-width="5" stroke-linecap="round"/>
    <circle cx="42" cy="118" r="5" fill="#111111"/>
    <circle cx="72" cy="118" r="5" fill="#111111"/>
    <path d="M47 138c11 8 21 8 31 0" stroke="#111111" stroke-width="5" stroke-linecap="round"/>
    <circle cx="26" cy="132" r="8" fill="#F60808"/>
    <circle cx="89" cy="132" r="8" fill="#F60808"/>
    <path d="M14 106c-18-5-26-18-24-36" stroke="#111111" stroke-width="5" stroke-linecap="round"/>
    <path d="M101 105c17-8 23-22 18-39" stroke="#111111" stroke-width="5" stroke-linecap="round"/>
    <path d="M34 162l-17 26M75 162l20 26" stroke="#111111" stroke-width="6" stroke-linecap="round"/>
    <path d="M10 190h25M84 190h25" stroke="#111111" stroke-width="7" stroke-linecap="round"/>
  </g>
  <defs>
    <filter id="softShadow" x="30" y="105" width="320" height="235" color-interpolation-filters="sRGB" filterUnits="userSpaceOnUse">
      <feDropShadow dx="3" dy="4" stdDeviation="2" flood-color="#000000" flood-opacity="0.25"/>
    </filter>
  </defs>
</svg>
